<svg height="1122.51969" viewBox="0.00000 0.00000 793.70079 1122.51969" width="793.70079" xmlns="http://www.w3.org/2000/svg" xmlns:cc="http://creativecommons.org/ns" xmlns:dc="http://purl.org/dc/elements/1.1/" xmlns:inkscape="http://www.inkscape.org/namespaces/inkscape" xmlns:rdf="http://www.w3.org/1999/02/22-rdf-syntax-ns">
<metadata>
<rdf:RDF>
<cc:Work>
<dc:format>image/svg+xml</dc:format>
</cc:Work>
</rdf:RDF>
</metadata>
<g id="layer0" inkscape:groupmode="layer">
<path d="M169.88034,98.18447 L207.67561,98.18447 L207.67561,135.97975 L169.88034,135.97975 z" fill="none" stroke="#000000" stroke-width="1"/>
<path d="M170.10591,135.91064 L207.89766,136.42781 L207.38048,174.21954 L169.58875,173.70238 z" fill="none" stroke="#000000" stroke-width="1"/>
<path d="M169.54488,174.94595 L207.27753,172.77116 L209.45233,210.50381 L171.71968,212.67862 z" fill="none" stroke="#000000" stroke-width="1"/>
<path d="M172.31573,211.32884 L210.03218,213.76857 L207.59245,251.48502 L169.876,249.04529 z" fill="none" stroke="#000000" stroke-width="1"/>
<path d="M169.7751,252.03928 L207.41568,248.62323 L210.83173,286.26382 L173.19115,289.67984 z" fill="none" stroke="#000000" stroke-width="1"/>
<path d="M169.31491,288.2569 L207.10902,288.5544 L206.8115,326.3485 L169.0174,326.051 z" fill="none" stroke="#000000" stroke-width="1"/>
<path d="M169.2332,323.4376 L206.9692,325.55374 L204.85304,363.28973 L167.11707,361.17358 z" fill="none" stroke="#000000" stroke-width="1"/>
<path d="M173.24724,364.22104 L211.00102,365.99142 L209.23064,403.7452 L171.47684,401.97482 z" fill="none" stroke="#000000" stroke-width="1"/>
<path d="M172.52904,400.03058 L209.96608,405.22202 L204.77466,442.65906 L167.33762,437.46762 z" fill="none" stroke="#000000" stroke-width="1"/>
<path d="M177.82657,439.14334 L214.50368,448.26874 L205.37827,484.94586 L168.70117,475.82047 z" fill="none" stroke="#000000" stroke-width="1"/>
<path d="M171.67094,477.6594 L209.4654,477.90967 L209.2151,515.7041 L171.42067,515.45386 z" fill="none" stroke="#000000" stroke-width="1"/>
<path d="M165.75482,515.84094 L203.20865,510.77203 L208.27753,548.2259 L170.8237,553.29474 z" fill="none" stroke="#000000" stroke-width="1"/>
<path d="M167.88187,554.0335 L203.37447,541.04285 L216.36513,576.53546 L180.87253,589.5261 z" fill="none" stroke="#000000" stroke-width="1"/>
<path d="M170.74025,582.291 L208.46292,584.63275 L206.12119,622.3554 L168.39853,620.0137 z" fill="none" stroke="#000000" stroke-width="1"/>
<path d="M168.5443,626.92664 L206.27315,624.68695 L208.51285,662.41583 L170.784,664.6555 z" fill="none" stroke="#000000" stroke-width="1"/>
<path d="M167.27826,670.426 L205.06398,671.2754 L204.21461,709.06116 L166.4289,708.2118 z" fill="none" stroke="#000000" stroke-width="1"/>
<path d="M176.42651,696.5724 L209.92133,714.08185 L192.41191,747.57666 L158.91708,730.0672 z" fill="none" stroke="#000000" stroke-width="1"/>
<path d="M160.02515,747.4223 L196.21815,736.5343 L207.10617,772.72736 L170.91315,783.61536 z" fill="none" stroke="#000000" stroke-width="1"/>
<path d="M162.41801,791.388 L196.67604,775.42334 L212.6407,809.68134 L178.38268,825.646 z" fill="none" stroke="#000000" stroke-width="1"/>
<path d="M165.63245,820.872 L203.32762,818.12317 L206.07648,855.81836 L168.3813,858.5672 z" fill="none" stroke="#000000" stroke-width="1"/>
<path d="M175.78691,868.3425 L209.81778,851.89923 L226.26112,885.93005 L192.23027,902.3734 z" fill="none" stroke="#000000" stroke-width="1"/>
<path d="M170.21083,896.8288 L207.88676,893.8275 L210.88803,931.5034 L173.21211,934.5047 z" fill="none" stroke="#000000" stroke-width="1"/>
<path d="M160.31992,930.3596 L196.13243,918.2788 L208.21327,954.0913 L172.40076,966.1721 z" fill="none" stroke="#000000" stroke-width="1"/>
<path d="M167.18324,970.12506 L203.67912,979.9502 L193.85396,1016.4461 L157.3581,1006.6209 z" fill="none" stroke="#000000" stroke-width="1"/>
<path d="M207.67561,98.18447 L245.47089,98.18447 L245.47089,135.97975 L207.67561,135.97975 z" fill="none" stroke="#000000" stroke-width="1"/>
<path d="M208.06068,135.46935 L245.8556,135.63235 L245.69258,173.42728 L207.89766,173.26427 z" fill="none" stroke="#000000" stroke-width="1"/>
<path d="M207.47383,173.92168 L245.26585,174.41788 L244.76965,212.2099 L206.97763,211.7137 z" fill="none" stroke="#000000" stroke-width="1"/>
<path d="M208.54594,210.1495 L246.281,212.28227 L244.14822,250.01733 L206.41318,247.88455 z" fill="none" stroke="#000000" stroke-width="1"/>
<path d="M205.86748,248.30814 L243.6422,247.06195 L244.88838,284.83667 L207.11366,286.08286 z" fill="none" stroke="#000000" stroke-width="1"/>
<path d="M207.70418,286.7591 L245.49913,286.6031 L245.65515,324.39804 L207.86018,324.55405 z" fill="none" stroke="#000000" stroke-width="1"/>
<path d="M212.9524,322.7791 L250.23476,328.98456 L244.02931,366.26694 L206.74693,360.0615 z" fill="none" stroke="#000000" stroke-width="1"/>
<path d="M208.3268,363.39426 L246.01915,366.1817 L243.23172,403.87402 L205.53937,401.0866 z" fill="none" stroke="#000000" stroke-width="1"/>
<path d="M209.09444,398.68143 L246.71559,395.0577 L250.33931,432.67886 L212.71815,436.30258 z" fill="none" stroke="#000000" stroke-width="1"/>
<path d="M211.9094,435.03482 L248.40605,444.8571 L238.58379,481.35373 L202.08713,471.53146 z" fill="none" stroke="#000000" stroke-width="1"/>
<path d="M206.95569,472.6206 L244.72447,471.20538 L246.13966,508.97418 L208.3709,510.38937 z" fill="none" stroke="#000000" stroke-width="1"/>
<path d="M208.00423,517.47656 L245.76366,519.1225 L244.11768,556.88196 L206.35826,555.23596 z" fill="none" stroke="#000000" stroke-width="1"/>
<path d="M206.68939,549.47974 L243.30597,558.84503 L233.94066,595.4616 L197.32408,586.0963 z" fill="none" stroke="#000000" stroke-width="1"/>
<path d="M212.2632,585.4915 L249.64177,591.0884 L244.04486,628.467 L206.66629,622.87006 z" fill="none" stroke="#000000" stroke-width="1"/>
<path d="M209.9677,625.86804 L245.69122,638.20953 L233.34969,673.93304 L197.62617,661.59155 z" fill="none" stroke="#000000" stroke-width="1"/>
<path d="M203.2927,665.49677 L240.00954,656.5326 L248.97372,693.24945 L212.2569,702.2136 z" fill="none" stroke="#000000" stroke-width="1"/>
<path d="M199.96753,704.6073 L237.42615,699.574 L242.45946,737.0326 L205.00084,742.0659 z" fill="none" stroke="#000000" stroke-width="1"/>
<path d="M213.58093,741.81067 L251.02026,746.98553 L245.84541,784.42487 L208.40608,779.25 z" fill="none" stroke="#000000" stroke-width="1"/>
<path d="M212.65685,767.2155 L247.8906,780.8927 L234.21338,816.12646 L198.97963,802.4493 z" fill="none" stroke="#000000" stroke-width="1"/>
<path d="M209.827,814.6573 L246.29547,824.58374 L236.36905,861.0522 L199.90059,851.1258 z" fill="none" stroke="#000000" stroke-width="1"/>
<path d="M208.1177,845.4741 L245.88782,846.85297 L244.509,884.6231 L206.73888,883.24426 z" fill="none" stroke="#000000" stroke-width="1"/>
<path d="M215.81166,883.4771 L253.27464,888.47784 L248.2739,925.94086 L210.81091,920.9401 z" fill="none" stroke="#000000" stroke-width="1"/>
<path d="M198.77731,948.66516 L232.86964,932.3497 L249.18515,966.442 L215.09282,982.7575 z" fill="none" stroke="#000000" stroke-width="1"/>
<path d="M211.79022,957.5419 L249.53702,955.6279 L251.45099,993.3747 L213.70421,995.2887 z" fill="none" stroke="#000000" stroke-width="1"/>
<path d="M245.47089,98.18447 L283.26617,98.18447 L283.26617,135.97975 L245.47089,135.97975 z" fill="none" stroke="#000000" stroke-width="1"/>
<path d="M245.48091,135.41321 L283.273,135.90434 L282.78186,173.69643 L244.98976,173.20529 z" fill="none" stroke="#000000" stroke-width="1"/>
<path d="M244.87068,173.97203 L282.62054,172.12003 L284.47256,209.86989 L246.72269,211.7219 z" fill="none" stroke="#000000" stroke-width="1"/>
<path d="M243.12114,212.21138 L280.7907,209.13129 L283.8708,246.80086 L246.20123,249.88094 z" fill="none" stroke="#000000" stroke-width="1"/>
<path d="M245.54475,249.53941 L283.21167,246.42722 L286.32388,284.09415 L248.65695,287.20633 z" fill="none" stroke="#000000" stroke-width="1"/>
<path d="M246.89944,286.69754 L284.37692,291.58844 L279.48602,329.06595 L242.00853,324.17502 z" fill="none" stroke="#000000" stroke-width="1"/>
<path d="M240.27744,326.53806 L277.60086,320.58453 L283.55438,357.908 L246.23096,363.8615 z" fill="none" stroke="#000000" stroke-width="1"/>
<path d="M246.68808,365.26108 L284.39713,362.70938 L286.94882,400.41843 L249.23979,402.97012 z" fill="none" stroke="#000000" stroke-width="1"/>
<path d="M246.205,403.72662 L283.7679,399.54224 L287.95233,437.10516 L250.3894,441.28955 z" fill="none" stroke="#000000" stroke-width="1"/>
<path d="M252.06688,435.02637 L289.3973,440.93588 L283.4878,478.2663 L246.15735,472.35678 z" fill="none" stroke="#000000" stroke-width="1"/>
<path d="M239.36345,486.27533 L275.62582,475.62057 L286.28058,511.88293 L250.0182,522.5377 z" fill="none" stroke="#000000" stroke-width="1"/>
<path d="M245.33434,516.38715 L283.11832,515.4638 L284.04163,553.2478 L246.25764,554.17114 z" fill="none" stroke="#000000" stroke-width="1"/>
<path d="M250.42169,540.1931 L286.0317,552.8584 L273.3664,588.46844 L237.7564,575.80316 z" fill="none" stroke="#000000" stroke-width="1"/>
<path d="M245.91046,597.10376 L281.19162,583.5493 L294.74606,618.83044 L259.46487,632.3849 z" fill="none" stroke="#000000" stroke-width="1"/>
<path d="M247.13583,628.5255 L284.40628,622.24884 L290.68292,659.5193 L253.41246,665.79596 z" fill="none" stroke="#000000" stroke-width="1"/>
<path d="M247.35202,661.13306 L281.0987,678.15204 L264.0797,711.8987 L230.33305,694.87976 z" fill="none" stroke="#000000" stroke-width="1"/>
<path d="M258.4963,704.59235 L292.30698,721.4838 L275.41553,755.2945 L241.60486,738.403 z" fill="none" stroke="#000000" stroke-width="1"/>
<path d="M246.51135,736.5514 L284.1811,739.62946 L281.10306,777.2992 L243.43332,774.2211 z" fill="none" stroke="#000000" stroke-width="1"/>
<path d="M259.02356,774.9397 L293.36932,790.7147 L277.5943,825.0605 L243.24854,809.28546 z" fill="none" stroke="#000000" stroke-width="1"/>
<path d="M229.47807,831.11035 L261.45822,810.96704 L281.60153,842.9472 L249.62138,863.0905 z" fill="none" stroke="#000000" stroke-width="1"/>
<path d="M233.53973,865.58484 L269.39197,853.6224 L281.35443,889.4746 L245.50218,901.4371 z" fill="none" stroke="#000000" stroke-width="1"/>
<path d="M238.87715,906.0514 L268.46185,882.5306 L291.98267,912.1153 L262.39795,935.63605 z" fill="none" stroke="#000000" stroke-width="1"/>
<path d="M234.58354,937.5274 L268.64066,921.1385 L285.02954,955.1956 L250.97243,971.5845 z" fill="none" stroke="#000000" stroke-width="1"/>
<path d="M259.54968,972.37 L291.78894,992.09595 L272.063,1024.3352 L239.82373,1004.60925 z" fill="none" stroke="#000000" stroke-width="1"/>
<path d="M283.26617,98.18447 L321.06143,98.18447 L321.06143,135.97975 L283.26617,135.97975 z" fill="none" stroke="#000000" stroke-width="1"/>
<path d="M282.92694,136.21725 L320.71646,135.55685 L321.37683,173.34636 L283.58734,174.00676 z" fill="none" stroke="#000000" stroke-width="1"/>
<path d="M282.55917,174.3039 L320.31747,172.63234 L321.989,210.39064 L284.23074,212.06218 z" fill="none" stroke="#000000" stroke-width="1"/>
<path d="M280.5281,213.16219 L318.18265,209.90361 L321.44122,247.55817 L283.78668,250.81673 z" fill="none" stroke="#000000" stroke-width="1"/>
<path d="M282.04156,251.86263 L319.52844,247.04427 L324.3468,284.53116 L286.85992,289.3495 z" fill="none" stroke="#000000" stroke-width="1"/>
<path d="M279.71072,291.246 L317.25433,286.89148 L321.60883,324.43506 L284.06525,328.78958 z" fill="none" stroke="#000000" stroke-width="1"/>
<path d="M288.07672,324.0922 L325.50797,329.32535 L320.2748,366.75656 L282.84357,361.5234 z" fill="none" stroke="#000000" stroke-width="1"/>
<path d="M283.75696,363.35843 L321.2982,367.7332 L316.92343,405.27444 L279.3822,400.89966 z" fill="none" stroke="#000000" stroke-width="1"/>
<path d="M281.59247,402.4119 L319.0337,397.25082 L324.19476,434.69205 L286.75354,439.85312 z" fill="none" stroke="#000000" stroke-width="1"/>
<path d="M283.94525,435.33856 L321.71118,436.8272 L320.22253,474.59317 L282.4566,473.10452 z" fill="none" stroke="#000000" stroke-width="1"/>
<path d="M286.5072,473.54715 L323.9634,478.59842 L318.9121,516.0546 L281.4559,511.00336 z" fill="none" stroke="#000000" stroke-width="1"/>
<path d="M292.36243,511.0054 L328.24466,522.87756 L316.37247,558.7598 L280.49023,546.88763 z" fill="none" stroke="#000000" stroke-width="1"/>
<path d="M288.15976,547.90796 L324.0251,559.83105 L312.10196,595.6964 L276.23663,583.77325 z" fill="none" stroke="#000000" stroke-width="1"/>
<path d="M281.1492,590.8464 L318.9257,589.6553 L320.1168,627.43176 L282.34027,628.62286 z" fill="none" stroke="#000000" stroke-width="1"/>
<path d="M277.31924,637.1603 L313.48602,626.1855 L324.46085,662.3523 L288.29404,673.3271 z" fill="none" stroke="#000000" stroke-width="1"/>
<path d="M286.99023,672.8069 L324.25153,666.47595 L330.58246,703.7372 L293.32117,710.0681 z" fill="none" stroke="#000000" stroke-width="1"/>
<path d="M291.44656,696.004 L325.55356,712.2889 L309.26874,746.3959 L275.16174,730.111 z" fill="none" stroke="#000000" stroke-width="1"/>
<path d="M287.37146,739.9309 L324.62872,733.57654 L330.98306,770.83386 L293.7258,777.1882 z" fill="none" stroke="#000000" stroke-width="1"/>
<path d="M284.18256,782.91656 L321.3435,789.8119 L314.44812,826.9729 L277.28717,820.0775 z" fill="none" stroke="#000000" stroke-width="1"/>
<path d="M270.8195,830.72943 L304.77484,814.1307 L321.37357,848.086 L287.4182,864.68475 z" fill="none" stroke="#000000" stroke-width="1"/>
<path d="M288.88477,855.35925 L326.5536,858.4481 L323.4647,896.117 L285.79587,893.0281 z" fill="none" stroke="#000000" stroke-width="1"/>
<path d="M275.16968,892.0159 L312.84335,895.0453 L309.814,932.719 L272.14032,929.68964 z" fill="none" stroke="#000000" stroke-width="1"/>
<path d="M281.3435,916.0355 L317.56647,926.82355 L306.77844,963.0465 L270.5555,952.2585 z" fill="none" stroke="#000000" stroke-width="1"/>
<path d="M283.55316,976.1055 L318.7895,962.435 L332.46005,997.6713 L297.2237,1011.34186 z" fill="none" stroke="#000000" stroke-width="1"/>
<path d="M321.06143,98.18447 L358.85672,98.18447 L358.85672,135.97975 L321.06143,135.97975 z" fill="none" stroke="#000000" stroke-width="1"/>
<path d="M321.32657,135.80075 L359.1109,136.70967 L358.202,174.49402 L320.41766,173.5851 z" fill="none" stroke="#000000" stroke-width="1"/>
<path d="M320.18625,175.2832 L357.94922,173.72093 L359.5115,211.4839 L321.74854,213.04619 z" fill="none" stroke="#000000" stroke-width="1"/>
<path d="M321.23935,210.87991 L358.9056,214.00012 L355.78543,251.66638 L318.11917,248.54617 z" fill="none" stroke="#000000" stroke-width="1"/>
<path d="M320.59442,250.53062 L358.28867,247.76901 L361.0503,285.46326 L323.35602,288.22488 z" fill="none" stroke="#000000" stroke-width="1"/>
<path d="M318.1795,287.828 L355.8957,285.38416 L358.33954,323.10034 L320.62335,325.5442 z" fill="none" stroke="#000000" stroke-width="1"/>
<path d="M318.26318,330.61816 L355.39166,323.55 L362.45984,360.67844 L325.33136,367.74664 z" fill="none" stroke="#000000" stroke-width="1"/>
<path d="M327.4019,359.13077 L364.8166,364.4808 L359.46655,401.8955 L322.05185,396.54547 z" fill="none" stroke="#000000" stroke-width="1"/>
<path d="M318.21222,400.38202 L355.92108,397.82773 L358.47537,435.5366 L320.7665,438.09088 z" fill="none" stroke="#000000" stroke-width="1"/>
<path d="M315.7573,440.89505 L352.4016,431.63892 L361.65775,468.28323 L325.01343,477.5394 z" fill="none" stroke="#000000" stroke-width="1"/>
<path d="M317.04987,479.8185 L353.95596,471.6686 L362.10587,508.57474 L325.19977,516.7247 z" fill="none" stroke="#000000" stroke-width="1"/>
<path d="M315.07748,514.8596 L352.03018,506.92358 L359.96622,543.8763 L323.01352,551.8123 z" fill="none" stroke="#000000" stroke-width="1"/>
<path d="M312.31418,553.11554 L349.33533,545.5051 L356.94574,582.52625 L319.9246,590.13666 z" fill="none" stroke="#000000" stroke-width="1"/>
<path d="M311.85797,588.3938 L348.9856,581.3211 L356.0583,618.4487 L318.93066,625.5214 z" fill="none" stroke="#000000" stroke-width="1"/>
<path d="M317.75797,627.7441 L352.81915,613.63043 L366.93283,648.6916 L331.87167,662.8053 z" fill="none" stroke="#000000" stroke-width="1"/>
<path d="M317.91324,667.3803 L352.37772,651.8664 L367.89163,686.33093 L333.42712,701.8448 z" fill="none" stroke="#000000" stroke-width="1"/>
<path d="M325.85303,708.7586 L363.1758,702.80115 L369.1333,740.12396 L331.8105,746.0814 z" fill="none" stroke="#000000" stroke-width="1"/>
<path d="M331.84677,730.45844 L365.9171,746.8198 L349.55576,780.89014 L315.4854,764.5288 z" fill="none" stroke="#000000" stroke-width="1"/>
<path d="M324.92795,766.085 L360.06674,780.0044 L346.14737,815.1432 L311.00858,801.2238 z" fill="none" stroke="#000000" stroke-width="1"/>
<path d="M326.3482,817.43964 L364.0498,820.09937 L361.39008,857.80096 L323.6885,855.14124 z" fill="none" stroke="#000000" stroke-width="1"/>
<path d="M336.57944,853.17206 L370.36447,870.1148 L353.42175,903.89984 L319.63672,886.9571 z" fill="none" stroke="#000000" stroke-width="1"/>
<path d="M323.20816,882.49585 L360.99426,881.6634 L361.82672,919.4495 L324.04062,920.282 z" fill="none" stroke="#000000" stroke-width="1"/>
<path d="M305.6094,934.81537 L341.07202,921.74304 L354.14438,957.2056 L318.68176,970.27795 z" fill="none" stroke="#000000" stroke-width="1"/>
<path d="M329.4403,955.893 L360.31238,977.69666 L338.50876,1008.5687 L307.6367,986.7651 z" fill="none" stroke="#000000" stroke-width="1"/>
<path d="M358.85672,98.18447 L396.65198,98.18447 L396.65198,135.97975 L358.85672,135.97975 z" fill="none" stroke="#000000" stroke-width="1"/>
<path d="M359.08813,135.30293 L396.87903,135.87877 L396.3032,173.66966 L358.5123,173.09383 z" fill="none" stroke="#000000" stroke-width="1"/>
<path d="M359.56012,172.34665 L397.2892,174.5824 L395.0535,212.31148 L357.3244,210.07574 z" fill="none" stroke="#000000" stroke-width="1"/>
<path d="M358.07147,213.07751 L395.77475,210.44205 L398.41022,248.14532 L360.70694,250.78079 z" fill="none" stroke="#000000" stroke-width="1"/>
<path d="M358.54773,248.79102 L396.33856,248.21074 L396.91882,286.00156 L359.128,286.58182 z" fill="none" stroke="#000000" stroke-width="1"/>
<path d="M363.37436,285.98956 L400.77286,291.45157 L395.31088,328.8501 L357.91235,323.3881 z" fill="none" stroke="#000000" stroke-width="1"/>
<path d="M357.4046,327.77084 L395.0135,324.02188 L398.76248,361.63077 L361.1536,365.37973 z" fill="none" stroke="#000000" stroke-width="1"/>
<path d="M358.8914,360.58694 L396.67947,359.84964 L397.41678,397.6377 L359.6287,398.37503 z" fill="none" stroke="#000000" stroke-width="1"/>
<path d="M356.72995,400.7028 L394.52493,400.55832 L394.6694,438.3533 L356.87442,438.49777 z" fill="none" stroke="#000000" stroke-width="1"/>
<path d="M362.84863,434.58572 L400.49518,437.93542 L397.1455,475.58197 L359.49896,472.2323 z" fill="none" stroke="#000000" stroke-width="1"/>
<path d="M360.9885,476.9209 L398.68655,479.62997 L395.97748,517.328 L358.27942,514.61896 z" fill="none" stroke="#000000" stroke-width="1"/>
<path d="M364.36926,504.99716 L401.12332,513.80756 L392.3129,550.56165 L355.55887,541.7512 z" fill="none" stroke="#000000" stroke-width="1"/>
<path d="M356.84787,550.0688 L394.6338,549.2287 L395.47388,587.01465 L357.68796,587.85474 z" fill="none" stroke="#000000" stroke-width="1"/>
<path d="M365.89886,584.28577 L403.42987,588.7475 L398.96817,626.2785 L361.43716,621.8168 z" fill="none" stroke="#000000" stroke-width="1"/>
<path d="M360.8753,625.52435 L398.63696,627.1181 L397.0432,664.87976 L359.28156,663.286 z" fill="none" stroke="#000000" stroke-width="1"/>
<path d="M364.156,666.4348 L399.85803,678.83844 L387.45444,714.5404 L351.7524,702.13684 z" fill="none" stroke="#000000" stroke-width="1"/>
<path d="M364.99777,693.8438 L402.31628,699.8281 L396.33197,737.1466 L359.01346,731.1623 z" fill="none" stroke="#000000" stroke-width="1"/>
<path d="M355.34753,738.10095 L392.95905,734.37854 L396.6815,771.99005 L359.06995,775.71246 z" fill="none" stroke="#000000" stroke-width="1"/>
<path d="M348.81296,802.7797 L380.48425,782.15424 L401.10977,813.8255 L369.43848,834.45105 z" fill="none" stroke="#000000" stroke-width="1"/>
<path d="M373.66403,814.67847 L405.82742,834.5279 L385.978,866.6913 L353.8146,846.84186 z" fill="none" stroke="#000000" stroke-width="1"/>
<path d="M361.9382,850.9645 L398.6997,842.1852 L407.47897,878.9467 L370.7175,887.72595 z" fill="none" stroke="#000000" stroke-width="1"/>
<path d="M358.034,886.09375 L394.58328,895.7183 L384.9587,932.2676 L348.40942,922.643 z" fill="none" stroke="#000000" stroke-width="1"/>
<path d="M381.48578,922.8328 L412.72806,944.10254 L391.4583,975.34485 L360.21603,954.0751 z" fill="none" stroke="#000000" stroke-width="1"/>
<path d="M369.9965,966.9727 L406.8812,975.21906 L398.6349,1012.10376 L361.75018,1003.8574 z" fill="none" stroke="#000000" stroke-width="1"/>
<path d="M396.65198,98.18447 L434.44727,98.18447 L434.44727,135.97975 L396.65198,135.97975 z" fill="none" stroke="#000000" stroke-width="1"/>
<path d="M396.70566,135.8828 L434.49088,136.7548 L433.61884,174.54002 L395.83362,173.668 z" fill="none" stroke="#000000" stroke-width="1"/>
<path d="M397.07874,173.30858 L434.86935,172.71419 L435.46375,210.50478 L397.67313,211.09918 z" fill="none" stroke="#000000" stroke-width="1"/>
<path d="M397.1558,212.7153 L434.92426,211.29163 L436.34793,249.06007 L398.57947,250.48376 z" fill="none" stroke="#000000" stroke-width="1"/>
<path d="M396.65155,247.04349 L434.3045,250.32028 L431.02774,287.97324 L393.3748,284.69644 z" fill="none" stroke="#000000" stroke-width="1"/>
<path d="M401.40262,285.77054 L438.87897,290.67023 L433.97925,328.14658 L396.50293,323.2469 z" fill="none" stroke="#000000" stroke-width="1"/>
<path d="M391.51413,326.64908 L428.94708,321.4283 L434.16785,358.86127 L396.7349,364.08203 z" fill="none" stroke="#000000" stroke-width="1"/>
<path d="M393.2658,364.03912 L430.206,356.045 L438.2001,392.9852 L401.25995,400.9793 z" fill="none" stroke="#000000" stroke-width="1"/>
<path d="M395.5453,400.3767 L432.8658,394.40506 L438.83746,431.7256 L401.51694,437.69724 z" fill="none" stroke="#000000" stroke-width="1"/>
<path d="M403.96564,434.84473 L440.81265,443.25787 L432.39948,480.10486 L395.5525,471.6917 z" fill="none" stroke="#000000" stroke-width="1"/>
<path d="M399.79047,477.25262 L437.51413,474.9271 L439.83966,512.65076 L402.116,514.9763 z" fill="none" stroke="#000000" stroke-width="1"/>
<path d="M402.98883,508.98276 L438.44818,522.06396 L425.367,557.5233 L389.90765,544.4421 z" fill="none" stroke="#000000" stroke-width="1"/>
<path d="M386.2729,556.1973 L421.80716,543.32104 L434.68344,578.85535 L399.14917,591.7316 z" fill="none" stroke="#000000" stroke-width="1"/>
<path d="M398.65497,598.18884 L435.68512,590.6224 L443.25156,627.6525 L406.2214,635.219 z" fill="none" stroke="#000000" stroke-width="1"/>
<path d="M395.12473,620.8056 L432.26886,627.791 L425.28345,664.9352 L388.1393,657.94977 z" fill="none" stroke="#000000" stroke-width="1"/>
<path d="M390.80884,662.352 L428.56805,664.0026 L426.91745,701.76184 L389.15823,700.1112 z" fill="none" stroke="#000000" stroke-width="1"/>
<path d="M390.26645,704.8482 L426.00943,692.56323 L438.29443,728.3062 L402.55145,740.59125 z" fill="none" stroke="#000000" stroke-width="1"/>
<path d="M403.98285,726.7005 L438.5714,741.9358 L423.33615,776.52435 L388.74756,761.2891 z" fill="none" stroke="#000000" stroke-width="1"/>
<path d="M390.24902,779.8681 L427.83,775.8488 L431.84924,813.4298 L394.26828,817.44904 z" fill="none" stroke="#000000" stroke-width="1"/>
<path d="M388.26343,822.07074 L425.56674,815.9924 L431.6451,853.29565 L394.3418,859.374 z" fill="none" stroke="#000000" stroke-width="1"/>
<path d="M392.37125,843.2673 L430.03497,846.4179 L426.8844,884.0816 L389.22067,880.931 z" fill="none" stroke="#000000" stroke-width="1"/>
<path d="M415.9958,888.4457 L447.9128,908.68884 L427.66965,940.6059 L395.75262,920.3627 z" fill="none" stroke="#000000" stroke-width="1"/>
<path d="M409.07993,912.4253 L438.4127,936.2595 L414.57846,965.5923 L385.2457,941.75806 z" fill="none" stroke="#000000" stroke-width="1"/>
<path d="M388.65146,975.47797 L425.84406,968.75525 L432.5668,1005.9478 L395.3742,1012.67053 z" fill="none" stroke="#000000" stroke-width="1"/>
<path d="M434.44727,98.18447 L472.24255,98.18447 L472.24255,135.97975 L434.44727,135.97975 z" fill="none" stroke="#000000" stroke-width="1"/>
<path d="M434.2347,136.43457 L472.02597,135.8834 L472.57712,173.67467 L434.78586,174.22583 z" fill="none" stroke="#000000" stroke-width="1"/>
<path d="M434.83536,172.91219 L472.62045,173.78955 L471.7431,211.57465 L433.958,210.69728 z" fill="none" stroke="#000000" stroke-width="1"/>
<path d="M432.87326,213.00601 L470.56915,210.26686 L473.30832,247.96274 L435.61243,250.7019 z" fill="none" stroke="#000000" stroke-width="1"/>
<path d="M434.0374,253.30182 L471.58157,248.95226 L475.93112,286.49643 L438.38696,290.84598 z" fill="none" stroke="#000000" stroke-width="1"/>
<path d="M436.0028,289.86392 L473.78122,288.73538 L474.90976,326.51382 L437.13135,327.64236 z" fill="none" stroke="#000000" stroke-width="1"/>
<path d="M438.0507,323.98172 L475.4959,329.1138 L470.36383,366.55902 L432.9186,361.42694 z" fill="none" stroke="#000000" stroke-width="1"/>
<path d="M440.9599,360.72714 L477.93848,368.5416 L470.12402,405.5202 L433.14542,397.70572 z" fill="none" stroke="#000000" stroke-width="1"/>
<path d="M436.68457,399.09628 L474.43884,400.8566 L472.6785,438.61087 L434.92426,436.85056 z" fill="none" stroke="#000000" stroke-width="1"/>
<path d="M433.24722,443.94104 L469.68036,433.88577 L479.73563,470.31894 L443.3025,480.3742 z" fill="none" stroke="#000000" stroke-width="1"/>
<path d="M435.34506,481.8475 L472.35223,474.16956 L480.03018,511.17676 L443.02298,518.8547 z" fill="none" stroke="#000000" stroke-width="1"/>
<path d="M432.73904,508.06058 L470.47537,510.1702 L468.36575,547.90656 L430.6294,545.79694 z" fill="none" stroke="#000000" stroke-width="1"/>
<path d="M435.50394,552.2044 L473.14664,555.5974 L469.75366,593.24005 L432.111,589.8471 z" fill="none" stroke="#000000" stroke-width="1"/>
<path d="M424.0052,596.9634 L460.00015,585.4375 L471.52603,621.43243 L435.53107,632.9583 z" fill="none" stroke="#000000" stroke-width="1"/>
<path d="M446.235,621.0644 L482.831,630.5098 L473.38556,667.10583 L436.78958,657.6604 z" fill="none" stroke="#000000" stroke-width="1"/>
<path d="M435.93002,658.9095 L470.91644,673.20746 L456.61847,708.1939 L421.63202,693.89594 z" fill="none" stroke="#000000" stroke-width="1"/>
<path d="M435.7241,704.1371 L472.52505,712.7493 L463.91278,749.5503 L427.11182,740.93805 z" fill="none" stroke="#000000" stroke-width="1"/>
<path d="M427.1577,733.29816 L464.94202,732.3869 L465.85324,770.1712 L428.06894,771.0824 z" fill="none" stroke="#000000" stroke-width="1"/>
<path d="M431.75717,788.25995 L467.05533,774.7499 L480.5654,810.0481 L445.2672,823.5581 z" fill="none" stroke="#000000" stroke-width="1"/>
<path d="M423.48087,815.65857 L459.63892,804.655 L470.6425,840.81305 L434.48444,851.81665 z" fill="none" stroke="#000000" stroke-width="1"/>
<path d="M436.7702,856.0642 L474.47952,858.61163 L471.93213,896.3209 L434.2228,893.77356 z" fill="none" stroke="#000000" stroke-width="1"/>
<path d="M446.2799,880.06464 L480.98676,895.0285 L466.0229,929.73535 L431.31604,914.7715 z" fill="none" stroke="#000000" stroke-width="1"/>
<path d="M433.3362,948.1281 L465.00455,927.49805 L485.63464,959.1664 L453.9663,979.79645 z" fill="none" stroke="#000000" stroke-width="1"/>
<path d="M441.84915,960.31085 L476.30386,975.84644 L460.76825,1010.30115 L426.31354,994.76556 z" fill="none" stroke="#000000" stroke-width="1"/>
<path d="M472.24255,98.18447 L510.0378,98.18447 L510.0378,135.97975 L472.24255,135.97975 z" fill="none" stroke="#000000" stroke-width="1"/>
<path d="M472.4187,135.94402 L510.21338,136.15942 L509.99796,173.95409 L472.2033,173.73868 z" fill="none" stroke="#000000" stroke-width="1"/>
<path d="M472.905,172.73248 L510.68045,173.95656 L509.4564,211.732 L471.68094,210.50793 z" fill="none" stroke="#000000" stroke-width="1"/>
<path d="M473.53397,209.75572 L511.31332,210.85219 L510.21686,248.63156 L472.4375,247.53508 z" fill="none" stroke="#000000" stroke-width="1"/>
<path d="M472.35175,248.89491 L510.11523,250.44463 L508.56552,288.20813 L470.80203,286.65842 z" fill="none" stroke="#000000" stroke-width="1"/>
<path d="M472.63934,288.14804 L510.26154,284.5351 L513.8745,322.1573 L476.25232,325.77023 z" fill="none" stroke="#000000" stroke-width="1"/>
<path d="M469.70755,325.01874 L507.48383,323.82117 L508.6814,361.59747 L470.90512,362.79504 z" fill="none" stroke="#000000" stroke-width="1"/>
<path d="M475.38077,361.30338 L512.9009,365.85593 L508.3483,403.37604 L470.82822,398.8235 z" fill="none" stroke="#000000" stroke-width="1"/>
<path d="M472.83762,401.1546 L510.62003,400.1687 L511.60593,437.9511 L473.82352,438.937 z" fill="none" stroke="#000000" stroke-width="1"/>
<path d="M479.43863,439.52847 L516.2986,447.88455 L507.94254,484.74457 L471.08255,476.3885 z" fill="none" stroke="#000000" stroke-width="1"/>
<path d="M476.16855,478.22275 L513.89734,480.4637 L511.65634,518.1925 L473.92758,515.95154 z" fill="none" stroke="#000000" stroke-width="1"/>
<path d="M480.4164,508.67923 L516.0784,521.1974 L503.56027,556.8594 L467.89825,544.34125 z" fill="none" stroke="#000000" stroke-width="1"/>
<path d="M482.75018,544.6032 L519.4092,553.801 L510.21133,590.46 L473.55234,581.2622 z" fill="none" stroke="#000000" stroke-width="1"/>
<path d="M470.41837,587.8799 L507.2001,579.18585 L515.8941,615.96765 L479.11237,624.6616 z" fill="none" stroke="#000000" stroke-width="1"/>
<path d="M468.70486,636.34814 L503.55795,621.72815 L518.178,656.58124 L483.3249,671.20123 z" fill="none" stroke="#000000" stroke-width="1"/>
<path d="M465.64386,674.00287 L501.2146,661.2277 L513.98975,696.79846 L478.41904,709.5736 z" fill="none" stroke="#000000" stroke-width="1"/>
<path d="M469.6251,705.17554 L507.4019,706.3565 L506.22092,744.13336 L468.4441,742.95233 z" fill="none" stroke="#000000" stroke-width="1"/>
<path d="M480.91333,745.84143 L518.3659,750.91943 L513.28796,788.372 L475.83533,783.294 z" fill="none" stroke="#000000" stroke-width="1"/>
<path d="M484.37714,766.2181 L518.56934,782.32324 L502.46417,816.51544 L468.27197,800.4103 z" fill="none" stroke="#000000" stroke-width="1"/>
<path d="M476.61267,817.9812 L514.14435,813.52527 L518.6003,851.05695 L481.06857,855.5129 z" fill="none" stroke="#000000" stroke-width="1"/>
<path d="M463.76523,851.19543 L501.55856,851.57733 L501.1767,889.37067 L463.38336,888.9888 z" fill="none" stroke="#000000" stroke-width="1"/>
<path d="M475.12225,897.8611 L512.888,899.3554 L511.39365,937.1211 L473.62793,935.6268 z" fill="none" stroke="#000000" stroke-width="1"/>
<path d="M479.58093,930.2677 L517.26556,933.1577 L514.3756,970.84235 L476.69098,967.95233 z" fill="none" stroke="#000000" stroke-width="1"/>
<path d="M479.1941,956.4388 L515.9863,965.08826 L507.3368,1001.8805 L470.54456,993.231 z" fill="none" stroke="#000000" stroke-width="1"/>
<path d="M510.0378,98.18447 L547.83307,98.18447 L547.83307,135.97975 L510.0378,135.97975 z" fill="none" stroke="#000000" stroke-width="1"/>
<path d="M510.04956,135.3206 L547.84283,135.71191 L547.4515,173.50517 L509.65826,173.11385 z" fill="none" stroke="#000000" stroke-width="1"/>
<path d="M510.78284,173.7359 L548.5464,175.28445 L546.99786,213.04799 L509.2343,211.49944 z" fill="none" stroke="#000000" stroke-width="1"/>
<path d="M508.7805,211.11365 L546.57245,210.61288 L547.07324,248.40485 L509.28125,248.90561 z" fill="none" stroke="#000000" stroke-width="1"/>
<path d="M508.77966,250.30751 L546.524,248.3457 L548.4858,286.09003 L510.7415,288.05185 z" fill="none" stroke="#000000" stroke-width="1"/>
<path d="M512.8679,287.21124 L550.34174,292.13016 L545.42285,329.60397 L507.949,324.68506 z" fill="none" stroke="#000000" stroke-width="1"/>
<path d="M511.51636,323.3549 L549.2561,321.30725 L551.3037,359.04703 L513.56396,361.09464 z" fill="none" stroke="#000000" stroke-width="1"/>
<path d="M515.099,360.10886 L552.42456,366.0492 L546.4842,403.37473 L509.15866,397.4344 z" fill="none" stroke="#000000" stroke-width="1"/>
<path d="M507.68384,406.17145 L544.3643,397.05957 L553.4762,433.74002 L516.7957,442.85193 z" fill="none" stroke="#000000" stroke-width="1"/>
<path d="M510.5843,434.015 L548.3149,436.2257 L546.1042,473.95627 L508.3736,471.7456 z" fill="none" stroke="#000000" stroke-width="1"/>
<path d="M507.5425,480.0299 L545.272,477.801 L547.5009,515.5305 L509.7714,517.7594 z" fill="none" stroke="#000000" stroke-width="1"/>
<path d="M510.71136,521.40045 L547.84064,514.3365 L554.9046,551.46576 L517.7753,558.5297 z" fill="none" stroke="#000000" stroke-width="1"/>
<path d="M512.9969,546.02045 L548.49457,558.9973 L535.5177,594.495 L500.02005,581.5181 z" fill="none" stroke="#000000" stroke-width="1"/>
<path d="M501.0651,590.6983 L538.00323,582.6948 L546.0067,619.633 L509.06854,627.6365 z" fill="none" stroke="#000000" stroke-width="1"/>
<path d="M510.1984,625.4796 L547.19183,633.2236 L539.44794,670.217 L502.4545,662.4731 z" fill="none" stroke="#000000" stroke-width="1"/>
<path d="M509.6469,668.2694 L547.41235,669.77124 L545.91046,707.5367 L508.14505,706.0348 z" fill="none" stroke="#000000" stroke-width="1"/>
<path d="M507.05627,703.5279 L543.71924,694.3458 L552.9013,731.0088 L516.23834,740.1908 z" fill="none" stroke="#000000" stroke-width="1"/>
<path d="M519.78864,726.8615 L554.4895,741.8393 L539.5117,776.54016 L504.81085,761.5624 z" fill="none" stroke="#000000" stroke-width="1"/>
<path d="M503.82574,774.53766 L541.1284,768.4554 L547.2107,805.75806 L509.90802,811.84033 z" fill="none" stroke="#000000" stroke-width="1"/>
<path d="M501.56555,833.6592 L534.19904,814.5925 L553.2657,847.226 L520.6322,866.29266 z" fill="none" stroke="#000000" stroke-width="1"/>
<path d="M509.03326,870.0936 L544.1548,856.1308 L558.1176,891.2523 L522.9961,905.2152 z" fill="none" stroke="#000000" stroke-width="1"/>
<path d="M514.29333,905.2025 L546.7958,885.9133 L566.08496,918.4158 L533.5825,937.705 z" fill="none" stroke="#000000" stroke-width="1"/>
<path d="M499.59702,941.1631 L534.8275,927.47754 L548.5131,962.70807 L513.2826,976.3936 z" fill="none" stroke="#000000" stroke-width="1"/>
<path d="M511.6208,964.6941 L547.4672,976.6739 L535.4874,1012.5204 L499.641,1000.5406 z" fill="none" stroke="#000000" stroke-width="1"/>
<path d="M547.83307,98.18447 L585.62836,98.18447 L585.62836,135.97975 L547.83307,135.97975 z" fill="none" stroke="#000000" stroke-width="1"/>
<path d="M548.26117,135.20795 L586.0486,135.98048 L585.276,173.76787 L547.48865,172.99533 z" fill="none" stroke="#000000" stroke-width="1"/>
<path d="M547.77484,174.75725 L585.5256,172.92273 L587.3601,210.67346 L549.6094,212.50798 z" fill="none" stroke="#000000" stroke-width="1"/>
<path d="M547.27216,211.96341 L584.94037,208.86705 L588.03674,246.53528 L550.3685,249.63164 z" fill="none" stroke="#000000" stroke-width="1"/>
<path d="M545.98035,251.91492 L583.73584,250.1824 L585.4684,287.93796 L547.7128,289.67047 z" fill="none" stroke="#000000" stroke-width="1"/>
<path d="M547.56903,287.43384 L585.26056,284.63492 L588.05945,322.32642 L550.3679,325.12534 z" fill="none" stroke="#000000" stroke-width="1"/>
<path d="M545.5735,325.24097 L583.2343,322.0559 L586.4194,359.71674 L548.75854,362.9018 z" fill="none" stroke="#000000" stroke-width="1"/>
<path d="M548.4612,365.05716 L586.25305,364.54742 L586.76276,402.33926 L548.97095,402.849 z" fill="none" stroke="#000000" stroke-width="1"/>
<path d="M542.45026,405.77222 L579.9084,400.73557 L584.94507,438.19373 L547.4869,443.2304 z" fill="none" stroke="#000000" stroke-width="1"/>
<path d="M553.60876,433.49713 L591.04126,438.72116 L585.81726,476.15366 L548.38477,470.92966 z" fill="none" stroke="#000000" stroke-width="1"/>
<path d="M541.3512,484.25 L577.49,473.18338 L588.5566,509.32217 L552.4178,520.3888 z" fill="none" stroke="#000000" stroke-width="1"/>
<path d="M546.46655,519.12396 L582.757,508.56537 L593.3156,544.85583 L557.02515,555.4144 z" fill="none" stroke="#000000" stroke-width="1"/>
<path d="M539.55334,557.33295 L575.10065,544.4927 L587.9409,580.04 L552.3936,592.88025 z" fill="none" stroke="#000000" stroke-width="1"/>
<path d="M536.6065,597.2356 L571.49384,582.6974 L586.032,617.5847 L551.1447,632.1229 z" fill="none" stroke="#000000" stroke-width="1"/>
<path d="M538.0495,637.96027 L573.94434,626.1264 L585.77826,662.02124 L549.8834,673.85516 z" fill="none" stroke="#000000" stroke-width="1"/>
<path d="M537.4004,676.48193 L573.4052,664.9868 L584.9003,700.9916 L548.89557,712.4867 z" fill="none" stroke="#000000" stroke-width="1"/>
<path d="M548.1378,694.70294 L584.1279,706.244 L572.58685,742.2341 L536.59674,730.69305 z" fill="none" stroke="#000000" stroke-width="1"/>
<path d="M539.9394,736.07135 L577.6227,733.16364 L580.5304,770.8469 L542.8471,773.75464 z" fill="none" stroke="#000000" stroke-width="1"/>
<path d="M552.9887,772.787 L590.65704,769.6921 L593.752,807.3604 L556.0837,810.4553 z" fill="none" stroke="#000000" stroke-width="1"/>
<path d="M569.0103,811.86237 L601.0337,831.93695 L580.9591,863.9603 L548.9357,843.88574 z" fill="none" stroke="#000000" stroke-width="1"/>
<path d="M543.896,862.5095 L581.6647,863.9283 L580.246,901.6969 L542.4773,900.2782 z" fill="none" stroke="#000000" stroke-width="1"/>
<path d="M535.9724,899.41315 L573.05145,892.08997 L580.3746,929.169 L543.2956,936.4922 z" fill="none" stroke="#000000" stroke-width="1"/>
<path d="M553.93994,919.9611 L582.6212,944.5755 L558.00684,973.2568 L529.32556,948.6424 z" fill="none" stroke="#000000" stroke-width="1"/>
<path d="M536.1756,982.5953 L569.5446,964.8473 L587.2926,998.2163 L553.9236,1015.9643 z" fill="none" stroke="#000000" stroke-width="1"/>
<path d="M585.62836,98.18447 L623.42365,98.18447 L623.42365,135.97975 L585.62836,135.97975 z" fill="none" stroke="#000000" stroke-width="1"/>
<path d="M585.55096,135.81049 L623.33936,136.53444 L622.61536,174.32277 L584.827,173.59882 z" fill="none" stroke="#000000" stroke-width="1"/>
<path d="M586.11835,171.9896 L623.8569,174.05916 L621.78735,211.79773 L584.04877,209.72816 z" fill="none" stroke="#000000" stroke-width="1"/>
<path d="M583.53577,211.1036 L621.2936,209.42038 L622.9768,247.17815 L585.21906,248.86139 z" fill="none" stroke="#000000" stroke-width="1"/>
<path d="M585.8648,247.67917 L623.56445,250.36665 L620.87695,288.06625 L583.1773,285.37875 z" fill="none" stroke="#000000" stroke-width="1"/>
<path d="M587.0157,285.05817 L624.8075,284.5455 L625.3201,322.3373 L587.5283,322.84995 z" fill="none" stroke="#000000" stroke-width="1"/>
<path d="M586.8683,323.25525 L624.35156,328.10178 L619.505,365.58502 L582.0218,360.7385 z" fill="none" stroke="#000000" stroke-width="1"/>
<path d="M585.66516,368.40317 L622.66925,360.71017 L630.36224,397.71423 L593.35815,405.40723 z" fill="none" stroke="#000000" stroke-width="1"/>
<path d="M585.5942,394.5786 L623.0512,399.62393 L618.00586,437.08096 L580.5488,432.0356 z" fill="none" stroke="#000000" stroke-width="1"/>
<path d="M586.40765,434.03363 L624.10223,436.79074 L621.34515,474.4853 L583.6506,471.7282 z" fill="none" stroke="#000000" stroke-width="1"/>
<path d="M592.562,469.83368 L628.5778,481.29422 L617.11725,517.31006 L581.10144,505.8495 z" fill="none" stroke="#000000" stroke-width="1"/>
<path d="M587.52673,512.8245 L624.8334,518.8825 L618.7754,556.18915 L581.46875,550.1311 z" fill="none" stroke="#000000" stroke-width="1"/>
<path d="M591.2346,554.4159 L629.00397,555.81506 L627.6048,593.5844 L589.83545,592.18524 z" fill="none" stroke="#000000" stroke-width="1"/>
<path d="M583.15656,587.78577 L620.4056,594.18854 L614.0028,631.4375 L576.75385,625.0348 z" fill="none" stroke="#000000" stroke-width="1"/>
<path d="M588.75073,625.8802 L625.5054,634.688 L616.69763,671.4426 L579.94293,662.6349 z" fill="none" stroke="#000000" stroke-width="1"/>
<path d="M584.4344,659.47766 L621.46783,667.0279 L613.9176,704.06134 L576.88416,696.5111 z" fill="none" stroke="#000000" stroke-width="1"/>
<path d="M580.17126,703.7679 L617.7598,707.71515 L613.81256,745.3037 L576.224,741.35645 z" fill="none" stroke="#000000" stroke-width="1"/>
<path d="M581.43665,731.5375 L619.1838,733.4444 L617.27686,771.1915 L579.5297,769.2846 z" fill="none" stroke="#000000" stroke-width="1"/>
<path d="M587.4679,773.95856 L625.26215,774.243 L624.97766,812.03723 L587.1835,811.75275 z" fill="none" stroke="#000000" stroke-width="1"/>
<path d="M574.6983,832.03064 L610.9255,821.25696 L621.69916,857.48413 L585.472,868.2578 z" fill="none" stroke="#000000" stroke-width="1"/>
<path d="M600.0088,850.746 L636.3427,861.15405 L625.93463,897.488 L589.6007,887.0799 z" fill="none" stroke="#000000" stroke-width="1"/>
<path d="M580.16205,898.70734 L617.4638,892.6194 L623.55176,929.9211 L586.25,936.00903 z" fill="none" stroke="#000000" stroke-width="1"/>
<path d="M575.4701,954.27844 L608.7447,936.354 L626.66907,969.6286 L593.3945,987.55304 z" fill="none" stroke="#000000" stroke-width="1"/>
<path d="M586.24164,958.99335 L623.72327,963.8526 L618.864,1001.33417 L581.3824,996.4749 z" fill="none" stroke="#000000" stroke-width="1"/>
</g>
</svg>